<svg width="360" height="360" viewBox="0 0 360 360" fill="none" xmlns="http://www.w3.org/2000/svg">
<rect opacity="0.15" width="360" height="360" rx="82" fill="#176CD4"/>
<path d="M334.916 177.659C334.864 176.443 334.78 175.258 334.685 174.052C334.685 174.052 334.685 174.042 334.685 174.031C334.685 174.031 334.685 174.021 334.685 174.01C333.532 160.937 329.213 148.702 321.885 137.652C318.614 132.724 314.871 128.248 310.688 124.232C304.576 118.351 297.499 113.486 289.521 109.639C277.516 103.904 264.254 101.01 250.101 101.01C248.717 101.01 247.27 101.031 245.813 101.084C235.874 101.535 226.26 103.422 217.223 106.745C208.113 110.037 200.176 114.388 193.687 119.609C192.366 120.657 190.93 121.947 189.388 123.362L188.277 124.453L186.757 126.067H186.767H186.778L186.065 126.77L185.719 127.147L183.905 129.055C182.563 130.565 181.284 132.074 180.089 133.553L180.079 133.532L180.037 133.49C177.552 136.509 175.256 139.633 173.568 142.443C172.425 144.246 171.304 146.102 170.234 147.958L155.42 177.91L155.441 177.931L154.666 179.451L153.03 182.764C149.78 189.338 146.299 195.89 142.41 201.3C133.74 210.809 123.937 215.464 111.335 215.464C110.455 215.464 109.553 215.422 108.631 215.369C101.04 215.065 94.5296 213.273 88.7529 209.855C88.1344 209.488 87.5368 209.111 86.9602 208.723C82.2424 205.588 78.6254 201.562 75.9206 196.54C72.8698 190.847 71.5173 185.029 71.706 178.864C71.7165 178.697 71.727 178.55 71.727 178.413C72.1359 168.601 75.8786 160.968 83.4166 154.374C85.2513 152.791 87.1699 151.449 89.1723 150.254C89.4554 150.086 89.7384 149.929 90.0215 149.782C95.6199 146.731 101.994 145.211 109.301 145.211L111.577 145.274C123.182 145.714 132.136 149.341 139.275 156.418L161.669 116.212C156.312 112.627 150.262 109.544 143.594 107.039C143.343 106.944 143.081 106.84 142.819 106.756C142.022 106.473 141.236 106.179 140.418 105.917C133.331 103.548 125.898 102.09 118.244 101.43C118.056 101.398 117.846 101.377 117.657 101.356C116.483 101.283 115.288 101.136 114.114 101.084C112.835 101.031 111.545 101.01 110.287 101H109.564C95.4836 101.052 82.3997 103.936 70.4375 109.649C57.039 116.107 46.1776 125.511 38.1259 137.631C30.0952 149.75 25.7129 163.201 25.0839 177.638C25.0315 178.875 25 180.101 25 181.307C24.9895 201.499 32.3493 219.259 46.9849 234.167C62.26 249.809 82.1271 258.238 105.978 259.234C107.509 259.297 109.018 259.339 110.528 259.339C124.021 259.339 136.507 256.938 147.704 252.137C150.503 250.941 153.219 249.537 155.997 247.975C157.507 247.104 158.933 246.182 160.348 245.196L161.396 244.494L163.158 243.288C165.275 241.768 167.257 240.122 169.186 238.371L169.857 237.732C170.989 236.652 172.121 235.562 173.191 234.44L177.206 229.9L178.737 227.982L179.45 226.933L180.163 225.906C186.128 215.883 205.544 179.409 205.544 179.409V179.336L206.697 177.113L207.662 175.373C210.524 170.163 212.589 166.462 215.326 162.572L215.399 162.457C221.784 153.2 232.761 146.605 245.698 145.494C267.399 143.628 286.417 157.886 288.168 177.344C289.909 196.802 273.721 214.09 252.02 215.967C247.501 216.355 243.108 216.051 238.967 215.139L238.862 215.181C222.937 211.868 212.799 200.252 207.798 195.062L186.914 233.465C186.914 233.465 193.404 240.007 197.849 243.278C202.305 246.538 208.06 249.746 212.652 251.738C223.797 256.498 235.916 259.35 249.304 259.35C250.856 259.35 250.541 259.35 252.156 259.287C275.986 258.291 297.226 249.159 312.543 233.517C327.053 218.661 334.927 201.698 335 181.622V181.024C334.99 179.913 334.958 178.791 334.916 177.659V177.659Z" fill="#176CD4"/>
</svg>
